<svg xmlns="http://www.w3.org/2000/svg" xmlns:xlink="http://www.w3.org/1999/xlink" width="157" height="157" viewBox="0 0 157 157">
  <defs>
    <clipPath id="clip-path">
      <circle id="Ellipse_23" data-name="Ellipse 23" cx="78.5" cy="78.5" r="78.5" transform="translate(282 631.202)" fill="#eee"/>
    </clipPath>
  </defs>
  <g id="Mask_Group_8" data-name="Mask Group 8" transform="translate(-282 -631.202)" clip-path="url(#clip-path)">
    <g id="Group_420" data-name="Group 420" transform="translate(282 631)">
      <circle id="Ellipse_22" data-name="Ellipse 22" cx="78.5" cy="78.5" r="78.5" transform="translate(0 0.202)" fill="#eee"/>
      <g id="noun_hacker_870666" transform="translate(15.999 13.792)">
        <g id="Group_419" data-name="Group 419" transform="translate(0 0)">
          <g id="Group_418" data-name="Group 418">
            <g id="Group_417" data-name="Group 417">
              <path id="Path_483" data-name="Path 483" d="M32.9,37.774l-.212-6.437-2.633-2.954H10.481a2.388,2.388,0,1,1,0-4.776H25.793l-2.768-3.1-.075-.089c-5.517-6.826-5.56-12.52-3.138-18.829l7.3-18.676a15.963,15.963,0,0,1,4.885-6.573l12.389-8.461c-.925-.848-1.8-1.684-2.593-2.494-2.471-2.507-4.962-5.417-5.3-7.891a4.456,4.456,0,0,1-.043-.611,5.6,5.6,0,0,1,.027-.57,2.372,2.372,0,0,1,.137-1.242C47.613-73.061,55.86-87.338,71.231-89.36h.622c15.572,2.047,23.76,16.656,34.625,44.427a2.387,2.387,0,0,1,.137,1.237,5.692,5.692,0,0,1,.029.575,4.386,4.386,0,0,1-.043.606c-.337,2.45-2.884,5.444-5.291,7.891-.8.813-1.673,1.652-2.6,2.5l12.383,8.458a15.947,15.947,0,0,1,4.885,6.573l7.294,18.674c2.429,6.326,2.378,12.006-3.138,18.829l-.075.089-2.77,3.1h14.639a2.388,2.388,0,0,1,0,4.776h-18.9L110.4,31.338l-.21,6.436a2.389,2.389,0,0,1-2.386,2.308H35.285A2.39,2.39,0,0,1,32.9,37.774Zm72.59-2.467.086-2.647H37.507l.088,2.647Zm.242-7.423,1.4-42.854a1.612,1.612,0,0,0-1.616-1.576H37.566a1.611,1.611,0,0,0-1.616,1.576l1.4,42.854ZM71.761-26.743l2.945-.657a20.946,20.946,0,0,0,7.4-3.508l1.175-1a.882.882,0,0,0,.224-.3L85-35.563a63.7,63.7,0,0,0,2.587-7.569l.895-3.707a.824.824,0,0,0-.463-.923l-1.272-.624h-30.4l-1.273.624a.824.824,0,0,0-.463.923l.895,3.707a63.7,63.7,0,0,0,2.587,7.569l1.5,3.357a.882.882,0,0,0,.224.3l1.151.977a20.909,20.909,0,0,0,7.389,3.521l2.975.665Zm.326-11.783-.285-8,3.652,8ZM96.406-56.768,71.892-81.261a1.2,1.2,0,0,1,0-1.689,1.2,1.2,0,0,1,1.689,0L93.426-63.123C86.916-76.214,81.115-82.37,73.448-84.215l-1.907-.35-1.888.347c-9.594,2.3-16.326,11.4-25.282,32.8,1.081-.452,2.2-.852,3.332-1.205,6.21-1.94,14.639-3.106,23.84-3.106,1.517,0,3.015.032,4.486.094L71.892-59.77a1.2,1.2,0,0,1,0-1.689,1.2,1.2,0,0,1,1.689,0l6.043,6.038c1.441.111,2.848.253,4.214.422L71.892-66.934a1.2,1.2,0,0,1,0-1.689,1.2,1.2,0,0,1,1.689,0l14.08,14.066a1.22,1.22,0,0,1,.118.14c1.7.294,3.313.634,4.828,1.016L71.892-74.1a1.2,1.2,0,0,1,0-1.689,1.2,1.2,0,0,1,1.689,0L97.288-52.1a1.2,1.2,0,0,1,.146.181q.647.239,1.277.5Q97.534-54.232,96.406-56.768Z" transform="translate(-8.093 89.36)" fill="#707070" fill-rule="evenodd"/>
            </g>
            <text id="ATT_CK" data-name="ATT&amp;CK" transform="translate(39.001 98.41)" fill="#c63f1e" font-size="12" font-family="GillSans, Gill Sans"><tspan x="0" y="0">ATT&amp;CK</tspan></text>
          </g>
        </g>
      </g>
    </g>
  </g>
</svg>
