<svg xmlns="http://www.w3.org/2000/svg" width="17.647" height="20" viewBox="0 0 17.647 20">
  <g id="noun_Brain_2125092" transform="translate(-16.5 -25)">
    <g id="noun_Brain_844674" transform="translate(4 17.5)">
      <path id="Path_2" data-name="Path 2" d="M13.676,22.792v0a2.945,2.945,0,0,0,2.592,2.92,2.935,2.935,0,0,0,5.056.6,2.935,2.935,0,0,0,5.056-.6,2.945,2.945,0,0,0,2.592-2.92v0a2.936,2.936,0,0,0,.781-3.822,2.947,2.947,0,0,0,.4-1.471,2.916,2.916,0,0,0-1.23-2.39,2.89,2.89,0,0,0,.053-.551,2.947,2.947,0,0,0-1.176-2.351v0a2.948,2.948,0,0,0-1.248-2.4,2.936,2.936,0,0,0-5.223-1.119A2.936,2.936,0,0,0,16.1,9.8a2.947,2.947,0,0,0-1.248,2.4v0a2.947,2.947,0,0,0-1.176,2.351,2.869,2.869,0,0,0,.053.551A2.916,2.916,0,0,0,12.5,17.5a2.947,2.947,0,0,0,.4,1.471,2.936,2.936,0,0,0,.781,3.822Zm8.235.953.479-.239a1.184,1.184,0,0,1,.526-.124h.76a.588.588,0,0,0,0-1.176h-.76a2.366,2.366,0,0,0-1,.228V18.459a4.42,4.42,0,0,1,1.765-.371.588.588,0,0,0,0-1.176,5.594,5.594,0,0,0-1.765.29V12.978a2.335,2.335,0,0,0,1.319.4h1.034a.588.588,0,1,0,0-1.176H23.231a1.17,1.17,0,0,1-.832-.344l-.487-.487v-.933a1.763,1.763,0,0,1,3.424-.593l-1.067-.007h0a.588.588,0,0,0,0,1.176l1.746.012h0a.582.582,0,0,0,.135-.017,1.762,1.762,0,0,1,.472,1.194c0,.024,0,.05,0,.076l-.666.843a2.361,2.361,0,0,0-.506,1.434H23.676a.588.588,0,1,0,0,1.176h1.765v.588a.588.588,0,1,0,1.176,0v-1.74a1.182,1.182,0,0,1,.253-.73l.417-.528a1.747,1.747,0,0,1,.392,1.851.588.588,0,0,0,.294.736,1.763,1.763,0,0,1,.9,2.175H26.618a.588.588,0,1,0,0,1.176h1.915a.579.579,0,0,0,.05.074,1.744,1.744,0,0,1,.388,1.1,1.763,1.763,0,0,1-.375,1.084,2.352,2.352,0,0,0-1.978-1.084H25.441a.589.589,0,0,1-.588-.588.588.588,0,1,0-1.176,0,1.767,1.767,0,0,0,1.765,1.765h1.176a1.178,1.178,0,0,1,1.176,1.176,1.765,1.765,0,0,1-1.3,1.7l-.186-.932a.588.588,0,1,0-1.153.231l.235,1.176c0,.01-.008.019-.01.029a1.762,1.762,0,0,1-1.707,1.326,1.78,1.78,0,0,1-.315-.03l.731-.731a.588.588,0,1,0-.832-.832l-.947.947a1.755,1.755,0,0,1-.4-1.12Zm-6.471-5.658H13.777a1.763,1.763,0,0,1,.9-2.175.588.588,0,0,0,.294-.736,1.74,1.74,0,0,1,.325-1.776l1.172,1.972a.653.653,0,0,0,.046.067,2.382,2.382,0,0,0,.373.373L16.2,16.5a.588.588,0,0,0,.832.832L18.057,16.3a2.391,2.391,0,0,0,.291.019h.622a.588.588,0,0,0,0-1.176h-.623a1.17,1.17,0,0,1-.9-.413l-1.415-2.381c0-.053-.008-.1-.008-.147a1.766,1.766,0,0,1,.775-1.455l1.021.51a.588.588,0,1,0,.526-1.052l-.987-.494a1.763,1.763,0,0,1,3.371.725v2.169a2.335,2.335,0,0,0-1.319-.4h-.446a.588.588,0,1,0,0,1.176h.446a1.17,1.17,0,0,1,.832.344l.487.487V17.7a2.052,2.052,0,0,1-1.5-.125.588.588,0,0,0-.526,1.052,3.22,3.22,0,0,0,1.44.338,3.255,3.255,0,0,0,.588-.059v2.119H19.473a1.17,1.17,0,0,1-1.052-.65l-.395-.789a.588.588,0,1,0-1.052.526l.395.789a2.34,2.34,0,0,0,2.1,1.3h1.262v2.353a1.766,1.766,0,0,1-1.176,1.662V25.29a2.337,2.337,0,0,0-.689-1.664l-.66-.66a.588.588,0,0,0-.832.832l.66.66a1.169,1.169,0,0,1,.345.832v.932A1.763,1.763,0,0,1,17.264,25a.588.588,0,0,0-.57-.442h-.021l-.055,0a1.767,1.767,0,0,1-1.765-1.765c0-.016,0-.035,0-.053l1-1a.588.588,0,0,0-.832-.832l-.8.8a1.764,1.764,0,0,1-.544-1.271,1.744,1.744,0,0,1,.388-1.1.605.605,0,0,0,.05-.074h1.327a.588.588,0,1,0,0-1.176Z"/>
    </g>
  </g>
</svg>
