<svg xmlns="http://www.w3.org/2000/svg" width="24.001" height="24" viewBox="0 0 24.001 24">
  <g id="noun_strategy_878733" transform="translate(-6 -6)">
    <g id="Group_4" data-name="Group 4" transform="translate(6 6)">
      <path id="Path_3" data-name="Path 3" d="M17,12a1,1,0,0,1-.707-1.707l3-3a1,1,0,0,1,1.414,1.414l-3,3A1,1,0,0,1,17,12Z"/>
      <path id="Path_4" data-name="Path 4" d="M23,11,20,8"/>
      <path id="Path_5" data-name="Path 5" d="M23,12a1,1,0,0,1-.707-.293l-3-3a1,1,0,1,1,1.414-1.414l3,3A1,1,0,0,1,23,12ZM14,24a1,1,0,0,1-.707-1.707l4-4a1,1,0,0,1,1.414,1.414l-4,4A1,1,0,0,1,14,24Zm4,0a1,1,0,0,1-.707-.293l-4-4a1,1,0,0,1,1.414-1.414l4,4A1,1,0,0,1,18,24ZM20,6a3,3,0,1,1,3-3A3,3,0,0,1,20,6Zm0-4a1,1,0,1,0,1,1A1,1,0,0,0,20,2ZM5.4,24a1,1,0,0,1-1-1V21.166A7.175,7.175,0,0,1,11.566,14H16a3,3,0,0,0,3-3V8a1,1,0,0,1,2,0v3a5,5,0,0,1-5,5H11.566A5.171,5.171,0,0,0,6.4,21.166V23a1,1,0,0,1-1,1ZM9,7a1,1,0,0,1-.707-1.707l4-4a1,1,0,0,1,1.414,1.414l-4,4A1,1,0,0,1,9,7Zm4,0a1,1,0,0,1-.707-.293l-4-4A1,1,0,0,1,9.707,1.293l4,4A1,1,0,0,1,13,7ZM1,13a1,1,0,0,1-.707-1.707l4-4A1,1,0,0,1,5.707,8.707l-4,4A1,1,0,0,1,1,13Zm4,0a1,1,0,0,1-.707-.293l-4-4A1,1,0,0,1,1.707,7.293l4,4A1,1,0,0,1,5,13Z"/>
    </g>
  </g>
</svg>
