<svg xmlns="http://www.w3.org/2000/svg" width="14.174" height="20" viewBox="0 0 14.174 20">
  <g id="noun_rook_2482022" transform="translate(24.893 9)">
    <g id="Group_5" data-name="Group 5" transform="translate(-43 -14)">
      <path id="Path_6" data-name="Path 6" d="M18.844,25h6.35a.427.427,0,0,0,.07-.007h6.28a.738.738,0,0,0,.737-.737V22.977a1.992,1.992,0,0,0-1.2-1.826v-.308A1.779,1.779,0,0,0,29.9,19.17c-.185-.294-.343-.534-.479-.74a6.108,6.108,0,0,1-.858-1.65,14.468,14.468,0,0,1-.8-5.67,1.436,1.436,0,0,0,1.276-1.171l.13-.707A1.605,1.605,0,0,0,30.363,8l.384-1.867a.934.934,0,0,0-.915-1.12h-1.2a.881.881,0,0,0-.876.782l-.042.373a.073.073,0,0,1-.071.064H26.8a.069.069,0,0,1-.052-.024.071.071,0,0,1-.018-.056l.019-.172A.882.882,0,0,0,25.871,5H24.518a.881.881,0,0,0-.876.981l.019.174a.072.072,0,0,1-.018.057.068.068,0,0,1-.052.024h-.844a.072.072,0,0,1-.07-.061L22.635,5.8a.881.881,0,0,0-.876-.781h-1.2a.934.934,0,0,0-.914,1.122L20.026,8a1.6,1.6,0,0,0,1.2,1.228l.13.705a1.437,1.437,0,0,0,1.275,1.173,14.468,14.468,0,0,1-.8,5.676,6.118,6.118,0,0,1-.859,1.651c-.136.206-.294.446-.479.74a1.78,1.78,0,0,0-1.184,1.674v.308a1.991,1.991,0,0,0-1.2,1.826v1.279A.738.738,0,0,0,18.844,25ZM20.9,7.824l-.384-1.864a.045.045,0,0,1,.01-.039.041.041,0,0,1,.034-.016l1.2-.008.042.379a.961.961,0,0,0,.954.849h.844a.961.961,0,0,0,.954-1.067l-.027-.169h.676l.669-.006-.02.176A.961.961,0,0,0,26.8,7.125h.844a.962.962,0,0,0,.954-.852l.034-.368h1.2a.041.041,0,0,1,.034.016.044.044,0,0,1,.01.037l-.384,1.865a.715.715,0,0,1-.7.567h-7.2A.714.714,0,0,1,20.9,7.824Zm1.336,1.954-.091-.5h6.107l-.092.5a.553.553,0,0,1-.545.454h-.2l-.026-.005a.444.444,0,0,0-.109.005H22.778A.553.553,0,0,1,22.232,9.778Zm.438,7.3a15.372,15.372,0,0,0,.854-5.954h3.339a15.375,15.375,0,0,0,.855,5.947,6.97,6.97,0,0,0,.957,1.85l.1.153H21.617l.1-.146A6.972,6.972,0,0,0,22.671,17.076Zm-1.584,2.885H29.3c.012,0,.023,0,.035,0a.889.889,0,0,1,.854.886v.144h-5a.427.427,0,0,0-.07.007H20.2v-.144A.89.89,0,0,1,21.087,19.961ZM19,22.984a1.1,1.1,0,0,1,1.1-1.1h5.1a.427.427,0,0,0,.07-.007h5.028a1.1,1.1,0,0,1,1.1,1.1V24.1h-6.2a.427.427,0,0,0-.07.007H19Z"/>
    </g>
  </g>
</svg>
